# xmcd
#
# Track frame offsets: 
#        150
#        13160
#        30232
#        47777
#        62165
#        73800
#        88232
#        98820
#        118525
#        128947
#        146160
#        156092
#        167225
#
# Disc length: 2491 seconds
#
# Revision: 8
# Processed by: cddbd v1.5.2PL0 Copyright (c) Steve Scherf et al.
# Submitted via: ExactAudioCopy v0.99pb5
#
DISCID=b809b90d
DTITLE=Kentucky Headhunters - Best Of The Kentucky Headhunters_St
DYEAR=1994
DGENRE=Country
TTITLE0=Dumas Walker
TTITLE1=Walk Softly On This Heart Of Mine
TTITLE2=Rock N' Roll Angel
TTITLE3=Oh Lonesome Me
TTITLE4=The Ballald Of Davy Cockett
TTITLE5=Only Daddy That'll Walk The Line
TTITLE6=It's Chitlin' Time
TTITLE7=Sprint In The Sky
TTITLE8=Let's Work Together
TTITLE9=Honky Tonk Walkin'
TTITLE10=Dixie Fried
TTITLE11=Redneck Girl
TTITLE12=You've Go To Hide Your Love Away
EXTD=Best of Kentucky Head Hunters
EXTT0=
EXTT1=
EXTT2=
EXTT3=
EXTT4=
EXTT5=
EXTT6=
EXTT7=
EXTT8=
EXTT9=
EXTT10=
EXTT11=
EXTT12=
PLAYORDER=
